<svg height="496pt" viewBox="0 -15 496 495" width="496pt" xmlns="http://www.w3.org/2000/svg" xmlns:xlink="http://www.w3.org/1999/xlink"><linearGradient id="lg1"><stop offset="0" stop-color="#003f8a"/><stop offset=".518" stop-color="#00d7df"/><stop offset="1" stop-color="#006df0"/></linearGradient><linearGradient id="linear0" gradientUnits="userSpaceOnUse" x1="10.312" x2="521.528" xlink:href="#lg1" y1="486.188" y2="-25.028"/><linearGradient id="linear1" gradientUnits="userSpaceOnUse" x1="-121.688" x2="389.528" xlink:href="#lg1" y1="354.188" y2="-157.028"/><linearGradient id="linear2" gradientUnits="userSpaceOnUse" x1="-77.688" x2="433.528" xlink:href="#lg1" y1="398.188" y2="-113.028"/><linearGradient id="linear3" gradientUnits="userSpaceOnUse" x1="-33.688" x2="477.528" xlink:href="#lg1" y1="442.188" y2="-69.028"/><linearGradient id="linear5" gradientUnits="userSpaceOnUse" x1="54.312" x2="565.528" xlink:href="#lg1" y1="530.188" y2="18.972"/><linearGradient id="linear6" gradientUnits="userSpaceOnUse" x1="-81.688" x2="429.528" xlink:href="#lg1" y1="394.188" y2="-117.028"/><linearGradient id="linear7" gradientUnits="userSpaceOnUse" x1="-37.688" x2="473.528" xlink:href="#lg1" y1="438.188" y2="-73.028"/><linearGradient id="linear8" gradientUnits="userSpaceOnUse" x1="6.312" x2="517.528" xlink:href="#lg1" y1="482.188" y2="-29.028"/><linearGradient id="linear9" gradientUnits="userSpaceOnUse" x1="50.312" x2="561.528" xlink:href="#lg1" y1="526.188" y2="14.972"/><linearGradient id="linear10" gradientUnits="userSpaceOnUse" x1="94.312" x2="605.528" xlink:href="#lg1" y1="570.188" y2="58.972"/><linearGradient id="linear11" gradientUnits="userSpaceOnUse" x1="-41.688" x2="469.528" xlink:href="#lg1" y1="434.188" y2="-77.028"/><linearGradient id="linear12" gradientUnits="userSpaceOnUse" x1="2.312" x2="513.528" xlink:href="#lg1" y1="478.188" y2="-33.028"/><linearGradient id="linear13" gradientUnits="userSpaceOnUse" x1="46.312" x2="557.528" xlink:href="#lg1" y1="522.188" y2="10.972"/><linearGradient id="linear14" gradientUnits="userSpaceOnUse" x1="90.312" x2="601.528" xlink:href="#lg1" y1="566.188" y2="54.972"/><linearGradient id="linear15" gradientUnits="userSpaceOnUse" x1="134.312" x2="645.528" xlink:href="#lg1" y1="610.188" y2="98.972"/><linearGradient id="linear16" gradientUnits="userSpaceOnUse" x1="-1.688" x2="509.528" xlink:href="#lg1" y1="474.188" y2="-37.028"/><linearGradient id="linear17" gradientUnits="userSpaceOnUse" x1="42.312" x2="553.528" xlink:href="#lg1" y1="518.188" y2="6.972"/><linearGradient id="linear18" gradientUnits="userSpaceOnUse" x1="86.312" x2="597.528" xlink:href="#lg1" y1="562.188" y2="50.972"/><linearGradient id="linear19" gradientUnits="userSpaceOnUse" x1="140.312" x2="651.528" xlink:href="#lg1" y1="616.188" y2="104.972"/><linearGradient id="linear20" gradientUnits="userSpaceOnUse" x1="182.312" x2="693.528" xlink:href="#lg1" y1="658.188" y2="146.972"/><path d="m472 32.5h-40v-24c0-4.417969-3.582031-8-8-8h-32c-4.417969 0-8 3.582031-8 8v24h-272v-24c0-4.417969-3.582031-8-8-8h-32c-4.417969 0-8 3.582031-8 8v24h-40c-13.253906 0-24 10.746094-24 24v384c0 13.253906 10.746094 24 24 24h448c13.253906 0 24-10.746094 24-24v-384c0-13.253906-10.746094-24-24-24zm-72-16h16v48h-16zm-320 0h16v48h-16zm-64 40c0-4.417969 3.582031-8 8-8h40v24c0 4.417969 3.582031 8 8 8h32c4.417969 0 8-3.582031 8-8v-24h272v24c0 4.417969 3.582031 8 8 8h32c4.417969 0 8-3.582031 8-8v-24h40c4.417969 0 8 3.582031 8 8v40h-464zm464 384c0 4.417969-3.582031 8-8 8h-448c-4.417969 0-8-3.582031-8-8v-328h464zm0 0" fill="url(#linear0)"/><path d="m48 192.5h48c4.417969 0 8-3.582031 8-8v-48c0-4.417969-3.582031-8-8-8h-48c-4.417969 0-8 3.582031-8 8v48c0 4.417969 3.582031 8 8 8zm8-48h32v32h-32zm0 0" fill="url(#linear1)"/><path d="m136 192.5h48c4.417969 0 8-3.582031 8-8v-48c0-4.417969-3.582031-8-8-8h-48c-4.417969 0-8 3.582031-8 8v48c0 4.417969 3.582031 8 8 8zm8-48h32v32h-32zm0 0" fill="url(#linear2)"/><path d="m224 192.5h48c4.417969 0 8-3.582031 8-8v-48c0-4.417969-3.582031-8-8-8h-48c-4.417969 0-8 3.582031-8 8v48c0 4.417969 3.582031 8 8 8zm8-48h32v32h-32zm0 0" fill="url(#linear3)"/><path d="m312 192.5h48c4.417969 0 8-3.582031 8-8v-48c0-4.417969-3.582031-8-8-8h-48c-4.417969 0-8 3.582031-8 8v48c0 4.417969 3.582031 8 8 8zm8-48h32v32h-32zm0 0" fill="url(#linear0)"/><path d="m400 192.5h48c4.417969 0 8-3.582031 8-8v-48c0-4.417969-3.582031-8-8-8h-48c-4.417969 0-8 3.582031-8 8v48c0 4.417969 3.582031 8 8 8zm8-48h32v32h-32zm0 0" fill="url(#linear5)"/><path d="m48 272.5h48c4.417969 0 8-3.582031 8-8v-48c0-4.417969-3.582031-8-8-8h-48c-4.417969 0-8 3.582031-8 8v48c0 4.417969 3.582031 8 8 8zm8-48h32v32h-32zm0 0" fill="url(#linear6)"/><path d="m136 272.5h48c4.417969 0 8-3.582031 8-8v-48c0-4.417969-3.582031-8-8-8h-48c-4.417969 0-8 3.582031-8 8v48c0 4.417969 3.582031 8 8 8zm8-48h32v32h-32zm0 0" fill="url(#linear7)"/><path d="m224 272.5h48c4.417969 0 8-3.582031 8-8v-48c0-4.417969-3.582031-8-8-8h-48c-4.417969 0-8 3.582031-8 8v48c0 4.417969 3.582031 8 8 8zm8-48h32v32h-32zm0 0" fill="url(#linear8)"/><path d="m312 272.5h48c4.417969 0 8-3.582031 8-8v-48c0-4.417969-3.582031-8-8-8h-48c-4.417969 0-8 3.582031-8 8v48c0 4.417969 3.582031 8 8 8zm8-48h32v32h-32zm0 0" fill="url(#linear9)"/><path d="m400 272.5h48c4.417969 0 8-3.582031 8-8v-48c0-4.417969-3.582031-8-8-8h-48c-4.417969 0-8 3.582031-8 8v48c0 4.417969 3.582031 8 8 8zm8-48h32v32h-32zm0 0" fill="url(#linear10)"/><path d="m48 352.5h48c4.417969 0 8-3.582031 8-8v-48c0-4.417969-3.582031-8-8-8h-48c-4.417969 0-8 3.582031-8 8v48c0 4.417969 3.582031 8 8 8zm8-48h32v32h-32zm0 0" fill="url(#linear11)"/><path d="m136 352.5h48c4.417969 0 8-3.582031 8-8v-48c0-4.417969-3.582031-8-8-8h-48c-4.417969 0-8 3.582031-8 8v48c0 4.417969 3.582031 8 8 8zm8-48h32v32h-32zm0 0" fill="url(#linear12)"/><path d="m224 352.5h48c4.417969 0 8-3.582031 8-8v-48c0-4.417969-3.582031-8-8-8h-48c-4.417969 0-8 3.582031-8 8v48c0 4.417969 3.582031 8 8 8zm8-48h32v32h-32zm0 0" fill="url(#linear13)"/><path d="m312 352.5h48c4.417969 0 8-3.582031 8-8v-48c0-4.417969-3.582031-8-8-8h-48c-4.417969 0-8 3.582031-8 8v48c0 4.417969 3.582031 8 8 8zm8-48h32v32h-32zm0 0" fill="url(#linear14)"/><path d="m400 352.5h48c4.417969 0 8-3.582031 8-8v-48c0-4.417969-3.582031-8-8-8h-48c-4.417969 0-8 3.582031-8 8v48c0 4.417969 3.582031 8 8 8zm8-48h32v32h-32zm0 0" fill="url(#linear15)"/><path d="m48 432.5h48c4.417969 0 8-3.582031 8-8v-48c0-4.417969-3.582031-8-8-8h-48c-4.417969 0-8 3.582031-8 8v48c0 4.417969 3.582031 8 8 8zm8-48h32v32h-32zm0 0" fill="url(#linear16)"/><path d="m136 432.5h48c4.417969 0 8-3.582031 8-8v-48c0-4.417969-3.582031-8-8-8h-48c-4.417969 0-8 3.582031-8 8v48c0 4.417969 3.582031 8 8 8zm8-48h32v32h-32zm0 0" fill="url(#linear17)"/><path d="m224 432.5h48c4.417969 0 8-3.582031 8-8v-48c0-4.417969-3.582031-8-8-8h-48c-4.417969 0-8 3.582031-8 8v48c0 4.417969 3.582031 8 8 8zm8-48h32v32h-32zm0 0" fill="url(#linear18)"/><path d="m304 408.5h104c4.417969 0 8-3.582031 8-8s-3.582031-8-8-8h-104c-4.417969 0-8 3.582031-8 8s3.582031 8 8 8zm0 0" fill="url(#linear19)"/><path d="m448 392.5h-16c-4.417969 0-8 3.582031-8 8s3.582031 8 8 8h16c4.417969 0 8-3.582031 8-8s-3.582031-8-8-8zm0 0" fill="url(#linear20)"/></svg>